<?xml version="1.0" encoding="UTF-8"?>
<svg width="256px" height="256px" viewBox="0 0 256 256" version="1.1" xmlns="http://www.w3.org/2000/svg" xmlns:xlink="http://www.w3.org/1999/xlink">
    <!-- Generator: Sketch 61 (89581) - https://sketch.com -->
    <title>Artboard</title>
    <desc>Created with Sketch.</desc>
    <g id="Artboard" stroke="none" stroke-width="1" fill="none" fill-rule="evenodd">
        <g id="Group">
            <rect id="Rectangle" fill-opacity="0" fill="#FFFFFF" x="0" y="0" width="256" height="256"></rect>
            <path d="M141.420382,183.150602 C141.420382,176.418675 140.073248,165.64759 140.073248,157.120482 C140.073248,150.837349 140.522293,148.593373 142.318471,148.593373 C145.461783,148.593373 175.996815,172.379518 182.732484,172.379518 C192.16242,172.379518 198,161.159639 198,156.671687 C198,147.246988 149.05414,132.885542 149.05414,127.5 C149.05414,123.012048 198,107.304217 198,97.8795181 C198,92.4939759 191.264331,82.1716867 183.181529,82.1716867 C177.792994,82.1716867 146.808917,106.406627 141.869427,106.406627 C140.522293,106.406627 139.624204,104.611446 139.624204,98.3283133 C139.624204,89.3524096 141.420382,77.2349398 141.420382,69.1566265 C141.420382,53.8975904 138.27707,53 124.805732,53 C115.375796,53 113.130573,54.7951807 113.130573,62.4246988 C113.130573,74.0933735 114.477707,88.4548193 114.477707,97.8795181 C114.477707,104.162651 113.579618,106.406627 112.232484,106.406627 C108.191083,106.406627 78.5541401,82.6204819 71.3694268,82.6204819 C62.388535,82.6204819 57,94.2891566 57,98.3283133 C57,107.753012 105.496815,123.012048 105.496815,127.948795 C105.496815,131.987952 57,146.798193 57,156.671687 C57,161.159639 62.8375796,172.379518 71.3694268,172.379518 C76.7579618,172.379518 108.191083,148.593373 112.232484,148.593373 C114.028662,148.593373 114.477707,151.286145 114.477707,158.915663 C114.477707,169.237952 113.130573,183.150602 113.130573,191.228916 C113.130573,200.534314 118.383553,201.96462 124.999648,202 L125.254777,202 C140.073248,202 141.420382,200.204819 141.420382,183.150602 Z" id="*" fill="#FA983A" fill-rule="nonzero"></path>
        </g>
    </g>
</svg>